<svg id="Layer_1" data-name="Layer 1" xmlns="http://www.w3.org/2000/svg" viewBox="0 0 44.96 44.78"><defs><style>.cls-1{fill:#b771ae;stroke:#b771ae;stroke-linecap:round;stroke-linejoin:round;stroke-width:2px;}</style></defs><title>hexagon</title><path class="cls-1" d="M37.91,54.83a1.79,1.79,0,0,1-.93,0l-19.69-5.1A1.79,1.79,0,0,1,16,48.48l-5.43-19.6A1.79,1.79,0,0,1,11,27.15l14.26-14.5A1.79,1.79,0,0,1,27,12.17l19.69,5.1A1.79,1.79,0,0,1,48,18.52l5.43,19.6A1.79,1.79,0,0,1,53,39.85L38.71,54.36A1.79,1.79,0,0,1,37.91,54.83Zm-18.72-8.3,17.69,4.58,12.81-13L44.81,20.47,27.12,15.89l-12.81,13Z" transform="translate(-9.52 -11.11)"/></svg>