<?xml version="1.0" encoding="utf-8"?>
<!-- Generator: Adobe Illustrator 21.1.0, SVG Export Plug-In . SVG Version: 6.00 Build 0)  -->
<svg version="1.1" id="Layer_1" xmlns="http://www.w3.org/2000/svg" xmlns:xlink="http://www.w3.org/1999/xlink" x="0px" y="0px"
	 viewBox="0 0 54.4 55.4" style="enable-background:new 0 0 54.4 55.4;" xml:space="preserve">
<style type="text/css">
	.st0{fill:#FFFFFF;stroke:#FFFFFF;stroke-width:0.5;stroke-miterlimit:10;}
</style>
<title>logo</title>
<path class="st0" d="M27.2,1.4C13.1,1.4,1.7,13.2,1.7,27.7c0,14.5,11.5,26.4,25.5,26.4c14.1,0,25.5-11.8,25.5-26.4
	C52.7,13.2,41.3,1.4,27.2,1.4z M27.2,3c1.3,0,2.7,0.1,3.9,0.3l-5.5,10H10.5c-0.4,0-0.8,0.4-0.8,0.8v22.5c0,0.5,0.4,0.8,0.8,0.8h1.8
	l-3.3,6c-3.5-4.3-5.7-9.9-5.7-16C3.3,14.1,14,3,27.2,3z M38.8,36c-0.4-5.1-4.4-9.2-9.4-9.5V14.3c0-0.5-0.4-0.8-0.8-0.8h-1.1l1.2-2.2
	L42.5,36H38.8z M15.1,36l11.5-20.9h1.2v11.4C23,27,19.2,31,18.8,36H15.1z M13.2,36h-1.9V15.1h13.3L13.2,36z M27.8,28.2V36h-7.4
	C20.8,31.9,23.9,28.7,27.8,28.2z M28.6,37.6c0.4,0,0.8-0.4,0.8-0.8v-8.7c4.4,0.3,7.8,4.1,7.8,8.7c0,4.8-3.8,8.7-8.4,8.7
	c-4.4,0-8-3.5-8.4-7.9H28.6z M27.2,52.4c-6.7,0-12.7-2.8-17.1-7.4l4-7.3h4.7c0.4,5.3,4.7,9.5,10,9.5c5.3,0,9.6-4.2,10-9.5h5.1
	c0.3,0,0.6-0.2,0.7-0.4c0.1-0.3,0.1-0.6,0-0.8l-15-26.8l3.2-5.9c10.5,2.6,18.3,12.4,18.3,24C51.1,41.3,40.4,52.4,27.2,52.4z"/>
</svg>
